<svg xmlns="http://www.w3.org/2000/svg" width="33" height="32" fill="none">
    <circle cx="16" cy="16" r="16" fill="#10507E" />
    <path fill="#FFFBFB"
        d="m15.87 16.227.246-.166a.314.314 0 0 0 .087-.08.177.177 0 0 0 .027-.1.141.141 0 0 0-.15-.137.145.145 0 0 0-.135.085.2.2 0 0 0 .005.174c.015.03.036.063.062.097.026.033.055.069.088.107l.672.793h-.273l-.549-.645a5.497 5.497 0 0 1-.126-.158.735.735 0 0 1-.085-.14.379.379 0 0 1 .016-.332.308.308 0 0 1 .13-.123.418.418 0 0 1 .196-.043c.073 0 .135.014.187.043a.307.307 0 0 1 .14.394.358.358 0 0 1-.068.102.7.7 0 0 1-.1.087l-.297.216a.366.366 0 0 0-.077.081.236.236 0 0 0-.014.24c.018.034.044.061.079.082a.26.26 0 0 0 .128.029.362.362 0 0 0 .157-.036.447.447 0 0 0 .137-.105.503.503 0 0 0 .095-.16.573.573 0 0 0 .037-.209h.203c0 .07-.007.135-.02.197a.61.61 0 0 1-.064.171.523.523 0 0 1-.113.142.242.242 0 0 0-.016.018.56.56 0 0 1-.204.132.648.648 0 0 1-.466-.015.388.388 0 0 1-.16-.143.39.39 0 0 1-.02-.36.47.47 0 0 1 .099-.123c.042-.039.091-.077.146-.115ZM16.06 14.878h-.37v-.194h.37c.065 0 .117-.01.157-.032.04-.02.069-.05.087-.086a.276.276 0 0 0 .028-.127.286.286 0 0 0-.028-.126.216.216 0 0 0-.087-.095.3.3 0 0 0-.156-.036h-.295v1.226h-.245v-1.422h.54c.11 0 .203.02.28.059a.412.412 0 0 1 .177.16c.04.068.06.145.06.232a.39.39 0 0 1-.237.388.672.672 0 0 1-.28.053Zm1.536-.892h.244v.95a.492.492 0 0 1-.07.272.44.44 0 0 1-.192.165.64.64 0 0 1-.268.055.653.653 0 0 1-.273-.055.437.437 0 0 1-.19-.165.503.503 0 0 1-.068-.271v-.95h.244v.95a.36.36 0 0 0 .035.168.22.22 0 0 0 .1.097c.043.021.093.031.152.031s.109-.01.151-.03a.22.22 0 0 0 .1-.098.358.358 0 0 0 .035-.168v-.95Zm1.259 1.056a.21.21 0 0 0-.014-.078.152.152 0 0 0-.046-.063.382.382 0 0 0-.093-.054 1.251 1.251 0 0 0-.153-.056 1.681 1.681 0 0 1-.187-.07.71.71 0 0 1-.149-.09.33.33 0 0 1-.134-.273.344.344 0 0 1 .141-.28.5.5 0 0 1 .161-.082c.062-.02.13-.03.205-.03a.59.59 0 0 1 .273.06.434.434 0 0 1 .177.157.399.399 0 0 1 .062.217h-.243a.248.248 0 0 0-.03-.124.205.205 0 0 0-.09-.086.325.325 0 0 0-.152-.03.347.347 0 0 0-.144.025.194.194 0 0 0-.086.072.187.187 0 0 0-.028.101c0 .027.006.051.018.074a.203.203 0 0 0 .057.06.501.501 0 0 0 .096.052c.038.016.083.032.135.047.079.023.148.05.206.078.059.028.108.06.147.096a.353.353 0 0 1 .117.275c0 .06-.012.114-.036.162a.35.35 0 0 1-.104.122.494.494 0 0 1-.16.077.761.761 0 0 1-.41 0 .597.597 0 0 1-.179-.084.397.397 0 0 1-.177-.339h.246c0 .047.008.086.023.119.016.032.039.059.068.08a.3.3 0 0 0 .1.045.496.496 0 0 0 .266-.01.19.19 0 0 0 .088-.069c.02-.029.029-.063.029-.101Zm1.402-.462v.194h-.755v-.194h.755Zm-.694-.594v1.422h-.245v-1.422h.245Zm.883 0v1.422h-.244v-1.422h.244Zm.537 0v1.422h-.245v-1.422h.245Zm.854 0-.576.685-.328.348-.043-.244.234-.289.415-.5h.298Zm-.263 1.422-.468-.674.169-.167.59.841h-.291Zm.981-1.232-.425 1.232h-.257l.536-1.422h.164l-.018.19Zm.356 1.232-.426-1.232-.019-.19h.165l.537 1.422h-.257Zm-.021-.527v.194h-.773v-.194h.773Zm.438-.895h.503c.108 0 .2.017.276.05.076.032.134.08.175.144a.42.42 0 0 1 .061.234.426.426 0 0 1-.039.188.382.382 0 0 1-.11.136.536.536 0 0 1-.17.085l-.074.036h-.453l-.002-.194h.34a.31.31 0 0 0 .146-.031.21.21 0 0 0 .088-.085.25.25 0 0 0 .03-.123c0-.05-.01-.093-.03-.13a.188.188 0 0 0-.087-.084.333.333 0 0 0-.151-.03h-.258v1.226h-.245v-1.422Zm.811 1.422-.334-.638.257-.002.339.627v.013h-.262Zm1.379-.194v.194h-.755v-.194h.755Zm-.686-1.228v1.422h-.245v-1.422h.245Zm.587.594v.191h-.656v-.191h.656Zm.094-.594v.196h-.75v-.196h.75Zm1.333 0v1.422h-.245l-.638-1.018v1.018h-.245v-1.422h.245l.64 1.02v-1.02h.243Zm.537 0v1.422h-.245v-1.422h.245Zm.855 0-.576.685-.329.348-.043-.244.235-.289.414-.5h.299Zm-.264 1.422-.468-.674.17-.167.589.841h-.291Zm1.53-.75v.078a.925.925 0 0 1-.042.29.624.624 0 0 1-.12.217.516.516 0 0 1-.185.138.598.598 0 0 1-.24.047.537.537 0 0 1-.426-.185.64.64 0 0 1-.123-.218.904.904 0 0 1-.043-.289v-.078c0-.107.014-.203.043-.288a.635.635 0 0 1 .12-.218.523.523 0 0 1 .187-.137.586.586 0 0 1 .24-.048c.087 0 .167.016.24.048a.511.511 0 0 1 .186.137c.052.06.092.133.12.218.029.085.043.18.043.288Zm-.245.078v-.08a.84.84 0 0 0-.023-.21.432.432 0 0 0-.068-.153.282.282 0 0 0-.108-.094.32.32 0 0 0-.145-.032.315.315 0 0 0-.145.032.292.292 0 0 0-.108.094.458.458 0 0 0-.068.153.845.845 0 0 0-.023.21v.08c0 .08.007.15.023.211a.468.468 0 0 0 .069.155c.03.042.067.074.109.095.042.021.09.032.144.032a.291.291 0 0 0 .253-.126.463.463 0 0 0 .067-.156.852.852 0 0 0 .023-.21ZM16.19 18.47h-.37v-.195h.37c.065 0 .117-.01.157-.03.04-.022.069-.05.087-.087a.276.276 0 0 0 .028-.127.285.285 0 0 0-.028-.126.216.216 0 0 0-.087-.095.298.298 0 0 0-.156-.037h-.295V19h-.245v-1.422h.54c.11 0 .203.02.28.059a.411.411 0 0 1 .177.16c.04.068.06.145.06.232a.39.39 0 0 1-.237.388.672.672 0 0 1-.28.053Zm1.143-.702L16.908 19h-.256l.535-1.422h.164l-.018.19ZM17.69 19l-.426-1.232-.019-.19h.165L17.947 19h-.258Zm-.02-.527v.194h-.774v-.194h.773Zm.437-.895h.503c.108 0 .2.016.276.049.076.033.134.08.175.145a.422.422 0 0 1 .061.234.383.383 0 0 1-.15.324.533.533 0 0 1-.169.085l-.074.036h-.452l-.002-.194h.338a.31.31 0 0 0 .147-.031c.04-.021.068-.05.088-.085a.25.25 0 0 0 .03-.123.27.27 0 0 0-.03-.13.189.189 0 0 0-.087-.084.333.333 0 0 0-.151-.03h-.258V19h-.245v-1.422ZM18.917 19l-.334-.639h.257l.339.626V19h-.262Zm.967-1.422V19h-.243v-1.422h.243Zm.446 0v.195H19.2v-.195h1.131Zm1.316 0V19H21.4l-.638-1.019V19h-.245v-1.422h.245l.64 1.02v-1.02h.243Zm1.222 1.228V19h-.755v-.194h.755Zm-.685-1.228V19h-.245v-1.422h.245Zm.587.594v.191h-.657v-.191h.657Zm.093-.594v.195h-.75v-.195h.75Zm.954 1.056a.21.21 0 0 0-.014-.078.153.153 0 0 0-.046-.063.38.38 0 0 0-.094-.054 1.237 1.237 0 0 0-.152-.056 1.682 1.682 0 0 1-.188-.07.713.713 0 0 1-.148-.09.332.332 0 0 1-.134-.273.345.345 0 0 1 .14-.281.5.5 0 0 1 .162-.081.68.68 0 0 1 .205-.03.59.59 0 0 1 .273.06.434.434 0 0 1 .176.156.399.399 0 0 1 .063.218h-.243a.249.249 0 0 0-.03-.124.206.206 0 0 0-.09-.086.325.325 0 0 0-.152-.031.349.349 0 0 0-.144.026.193.193 0 0 0-.086.072.186.186 0 0 0-.029.101c0 .027.006.051.019.073a.206.206 0 0 0 .056.061.494.494 0 0 0 .096.052 1.2 1.2 0 0 0 .136.047c.079.023.148.05.206.078.059.028.108.06.146.095a.354.354 0 0 1 .118.276c0 .06-.012.114-.036.162a.35.35 0 0 1-.104.122.497.497 0 0 1-.16.077.76.76 0 0 1-.41 0 .597.597 0 0 1-.179-.084.398.398 0 0 1-.177-.339h.245c0 .046.008.086.024.119a.22.22 0 0 0 .067.08c.029.02.062.035.1.045a.502.502 0 0 0 .266-.01.19.19 0 0 0 .088-.069c.02-.029.03-.063.03-.101ZM10.061 16.8v3.976l1.372.112V21H7.835v-.112l1.148-.112v-9.212l-1.148-.112v-.112h3.542c1.092 0 1.927.233 2.506.7.588.467.882 1.125.882 1.974 0 .905-.29 1.596-.868 2.072-.579.476-1.419.714-2.52.714h-1.316Zm0-5.292v5.124h1.274c.756 0 1.307-.215 1.652-.644.345-.43.518-1.11.518-2.044 0-.775-.159-1.372-.476-1.792-.308-.43-.873-.644-1.694-.644h-1.274Z" />
    <path stroke="#FFFBFB" stroke-linejoin="round" stroke-miterlimit="3.326" stroke-width=".5"
        d="M7.474 18C5.99 17.347 6.038 17.449 5 15.943V10.755h.148" />
    <path stroke="#FFFBFB" stroke-linejoin="round" stroke-miterlimit="3.326" stroke-width=".5"
        d="M12.56 11.664v-.909L8.854 9.94 5 10.755" />
    <path fill="#FFFBFB"
        d="M7.699 19.8v3.976l1.372.112V24H5.473v-.112l1.148-.112v-9.212l-1.148-.112v-.112h3.542c1.092 0 1.927.233 2.506.7.588.467.882 1.125.882 1.974 0 .905-.29 1.596-.868 2.072-.579.476-1.419.714-2.52.714H7.699Zm0-5.292v5.124h1.274c.756 0 1.306-.215 1.652-.644.345-.43.518-1.11.518-2.044 0-.775-.159-1.372-.476-1.792-.308-.43-.873-.644-1.694-.644H7.699Z" />
    <path fill="#FFFBFB"
        d="M9.55 21.885V22h-.533v-.115h.533Zm-.505-.951V22h-.141v-1.066h.141Zm1.077.094L9.769 22h-.145l.407-1.066h.093l-.002.094Zm.296.972-.354-.972-.002-.094h.093L10.563 22h-.145Zm-.019-.395v.116H9.8v-.116h.6Zm.536.073.211-.744h.103l-.06.289-.227.777h-.102l.075-.322Zm-.22-.744.17.73.05.336h-.101l-.259-1.066h.14Zm.808.728.165-.728h.141L11.571 22h-.1l.052-.338Zm-.259-.728.206.744.075.322h-.102l-.22-.777-.06-.29h.101ZM9.045 22.934V24h-.141v-1.066h.141Zm.447.48v.115h-.478v-.116h.478Zm.072-.48v.115h-.55v-.115h.55Zm.32 0V24h-.14v-1.066h.14Zm.258 0h.353a.5.5 0 0 1 .202.036.27.27 0 0 1 .127.109c.03.047.044.105.044.175a.286.286 0 0 1-.115.237.374.374 0 0 1-.132.061l-.04.016h-.331l-.002-.115h.251c.05 0 .093-.009.127-.026a.185.185 0 0 0 .076-.073.229.229 0 0 0 .002-.208.16.16 0 0 0-.077-.071.296.296 0 0 0-.132-.026h-.212V24h-.141v-1.066ZM10.764 24l-.26-.483.148-.001.263.475V24h-.151Zm.345-1.066h.138l.349.869.348-.87h.138L11.65 24h-.107l-.432-1.066Zm-.044 0h.12l.02.65V24h-.14v-1.066Zm.94 0h.121V24h-.14v-.416l.02-.65ZM8.417 13.694l-.012.033a.515.515 0 0 1-.18.246.458.458 0 0 1-.492.03.93.93 0 0 1-.213-.192l-.054-.063c-.208.208-.437.312-.687.312-.186 0-.33-.043-.432-.129a.465.465 0 0 1-.153-.372c0-.148.047-.278.141-.39a.907.907 0 0 1 .408-.261l-.027-.03a1.523 1.523 0 0 1-.195-.267.51.51 0 0 1 .015-.483.479.479 0 0 1 .198-.18.605.605 0 0 1 .285-.066c.138 0 .25.036.336.108.086.07.13.162.13.276a.503.503 0 0 1-.139.333.89.89 0 0 1-.36.243l.61.693c.121-.152.22-.328.293-.528a.163.163 0 0 0 .012-.051c0-.022-.007-.038-.02-.048-.013-.012-.036-.019-.07-.021l-.243-.015v-.024h.76v.024l-.229.015c-.05.002-.085.011-.105.027a.24.24 0 0 0-.057.093 2.486 2.486 0 0 1-.315.558l.066.075c.082.092.15.155.201.189a.316.316 0 0 0 .177.051c.058 0 .11-.012.156-.036a.564.564 0 0 0 .153-.123l.03-.033.012.006Zm-1.74-1.437c0 .082.023.168.07.258a1.5 1.5 0 0 0 .218.303l.003.003a.557.557 0 0 0 .315-.516.439.439 0 0 0-.084-.282.262.262 0 0 0-.219-.105.283.283 0 0 0-.219.096.349.349 0 0 0-.084.243Zm.21 1.695c.09 0 .181-.021.273-.063.092-.042.182-.102.27-.18l-.669-.777a.601.601 0 0 0-.219.234.657.657 0 0 0-.078.318c0 .142.038.256.114.342a.402.402 0 0 0 .31.126Z" />
</svg>